<svg width="580" height="230" viewBox="0 0 580 230" fill="none" xmlns="http://www.w3.org/2000/svg">
<g clip-path="url(#clip0_50_1438)">
<path d="M37.5304 115.83L94.3504 135.77L229.97 18.48L37.0904 105.73C32.6104 107.76 32.9004 114.21 37.5304 115.83Z" fill="#F9F9F9"/>
<path d="M110.231 211.52L94.3506 135.77L229.971 18.48L127.341 152.02L110.231 211.52Z" fill="white"/>
<path d="M180.291 199.25L127.341 152.02L229.971 18.48L189.271 196.38C188.341 200.44 183.401 202.02 180.291 199.25Z" fill="#F9F9F9"/>
<path d="M141.96 165.07L110.23 211.52L127.34 152.02L141.96 165.07Z" fill="#EEEEEE"/>
<path d="M366.07 134.84C366.07 135.91 365.54 136.44 364.47 136.44C363.7 136.44 362.54 136.38 360.99 136.25C359.43 136.12 358.27 136.06 357.51 136.06C356.75 136.06 355.57 136.12 354 136.25C352.42 136.38 351.25 136.44 350.49 136.44C349.42 136.44 348.89 135.74 348.89 134.33C348.89 128.92 349.06 120.8 349.4 109.98C349.74 99.16 349.91 91.04 349.91 85.63C349.91 84.82 349.74 84.42 349.4 84.42C349.02 84.42 348.72 84.66 348.51 85.12C346.34 89.76 341.2 102.16 333.11 122.31C331.79 126.19 329.89 131.02 327.42 136.82C327.12 137.37 325.59 137.65 322.82 137.65C318.81 137.65 316.6 137.29 316.17 136.56C314.72 133.11 312.66 128.27 309.97 122.05C306.43 113.61 301 101.05 293.67 84.35C293.54 84.05 293.26 83.75 292.84 83.46C292.5 83.72 292.33 84.18 292.33 84.87C292.33 90.37 292.43 98.61 292.62 109.6C292.81 120.59 292.91 128.83 292.91 134.33C292.91 135.74 292.38 136.44 291.31 136.44C290.59 136.44 289.48 136.38 287.99 136.25C286.5 136.12 285.39 136.06 284.67 136.06C283.9 136.06 282.76 136.12 281.25 136.25C279.74 136.38 278.6 136.44 277.83 136.44C276.76 136.44 276.23 136.04 276.23 135.23C276.23 130.5 276.45 123.42 276.9 113.98C277.35 104.54 277.57 97.46 277.57 92.73C277.57 88 277.35 80.47 276.9 70.65C276.45 60.83 276.23 53.47 276.23 48.57C276.23 47.76 276.72 47.29 277.7 47.16C283.49 46.39 287.86 46.01 290.8 46.01C291.22 46.01 291.82 46.88 292.59 48.63C302.9 71.29 311.76 91.53 319.17 109.34C320.92 113.52 321.96 115.6 322.3 115.6C322.73 115.6 323.64 113.9 325.05 110.49C330.84 96.69 338.87 76.2 349.14 49.02C349.78 47.36 350.48 46.53 351.25 46.53C352.7 46.53 354.88 46.62 357.8 46.79C360.72 46.96 362.9 47.05 364.35 47.05C365.41 47.05 365.95 47.56 365.95 48.58C365.95 53.48 365.79 60.84 365.47 70.66C365.15 80.48 364.99 87.84 364.99 92.74C364.99 97.64 365.17 104.46 365.53 113.83C365.89 123.2 366.07 130.21 366.07 134.85V134.84Z" fill="white"/>
<path d="M440.13 123.59C440.13 124.27 439.96 125.25 439.62 126.53C439.24 128.15 439 129.13 438.92 129.47C438.79 131 438.49 133.24 438.03 136.18C437.82 136.95 437.26 137.33 436.37 137.33C435.94 137.33 435.13 137.24 433.94 137.07C428.7 136.3 420.58 135.92 409.59 135.92C406.48 135.92 401.79 136.01 395.53 136.18C389.27 136.35 384.58 136.44 381.47 136.44C380.06 136.44 379.36 135.82 379.36 134.59C379.36 129.82 379.63 122.65 380.16 113.09C380.69 103.53 380.96 96.36 380.96 91.59C380.96 86.82 380.7 77.68 380.19 64.43C380.1 61.02 379.87 55.93 379.49 49.16L379.43 48.27C379.39 47.29 379.94 46.8 381.09 46.8C384.07 46.8 388.55 46.89 394.51 47.06C400.47 47.23 404.95 47.32 407.93 47.32C410.91 47.32 415.05 47.24 420.74 47.06C426.43 46.89 430.7 46.8 433.55 46.8C435.55 46.8 436.64 47.42 436.81 48.65C437.7 54.27 438.15 57.77 438.15 59.13C438.15 60.11 437.68 60.6 436.74 60.6C433.12 60.6 427.63 60.4 420.29 59.99C412.94 59.58 407.41 59.38 403.71 59.38C400.22 59.38 398.01 59.85 397.1 60.79C396.18 61.73 395.73 64.05 395.73 67.76V77.28C395.73 79.88 395.79 81.39 395.92 81.82C396.3 83.14 397.41 83.8 399.24 83.8C399.75 83.8 400.48 83.78 401.41 83.74H403.58C411.93 83.74 419.43 83.59 426.07 83.29C428.67 83.2 431.74 82.99 435.27 82.65C436.16 82.57 436.61 82.95 436.61 83.8C436.61 85.16 436.45 87.25 436.13 90.06C435.81 92.87 435.65 94.98 435.65 96.39C435.65 97.16 435.01 97.54 433.73 97.54C433.22 97.54 431.32 97.39 428.04 97.09C425.65 96.83 420.29 96.71 411.94 96.71C404.91 96.71 400.46 96.8 398.58 96.97C396.88 97.1 395.9 97.99 395.64 99.65C395.68 99.35 395.7 100.99 395.7 104.57V114.03C395.7 118.46 396.38 121.23 397.75 122.34C398.81 123.23 401.48 123.68 405.74 123.68L412.77 123.62C415.75 123.62 424.12 123.11 437.88 122.09L438.84 122.03C439.69 121.94 440.12 122.48 440.12 123.63L440.13 123.59Z" fill="white"/>
<path d="M539.881 134.84C539.881 135.91 539.351 136.44 538.281 136.44C537.511 136.44 536.351 136.38 534.801 136.25C533.241 136.12 532.081 136.06 531.321 136.06C530.561 136.06 529.381 136.12 527.811 136.25C526.231 136.38 525.061 136.44 524.301 136.44C523.231 136.44 522.701 135.74 522.701 134.33C522.701 128.92 522.871 120.8 523.211 109.98C523.551 99.16 523.721 91.04 523.721 85.63C523.721 84.82 523.551 84.42 523.211 84.42C522.831 84.42 522.531 84.66 522.321 85.12C520.151 89.76 515.011 102.16 506.921 122.31C505.601 126.19 503.701 131.02 501.231 136.82C500.931 137.37 499.401 137.65 496.631 137.65C492.621 137.65 490.411 137.29 489.981 136.56C488.531 133.11 486.471 128.27 483.781 122.05C480.241 113.61 474.811 101.05 467.491 84.35C467.361 84.05 467.081 83.75 466.661 83.46C466.321 83.72 466.151 84.18 466.151 84.87C466.151 90.37 466.251 98.61 466.441 109.6C466.631 120.59 466.731 128.83 466.731 134.33C466.731 135.74 466.201 136.44 465.131 136.44C464.411 136.44 463.301 136.38 461.811 136.25C460.321 136.12 459.211 136.06 458.491 136.06C457.721 136.06 456.581 136.12 455.071 136.25C453.561 136.38 452.421 136.44 451.651 136.44C450.581 136.44 450.051 136.04 450.051 135.23C450.051 130.5 450.271 123.42 450.721 113.98C451.171 104.54 451.391 97.46 451.391 92.73C451.391 88 451.171 80.47 450.721 70.65C450.271 60.83 450.051 53.47 450.051 48.57C450.051 47.76 450.541 47.29 451.521 47.16C457.311 46.39 461.681 46.01 464.621 46.01C465.051 46.01 465.641 46.88 466.411 48.63C476.721 71.29 485.581 91.53 492.991 109.34C494.741 113.52 495.781 115.6 496.121 115.6C496.541 115.6 497.461 113.9 498.871 110.49C504.661 96.69 512.691 76.2 522.961 49.02C523.601 47.36 524.301 46.53 525.071 46.53C526.521 46.53 528.701 46.62 531.621 46.79C534.541 46.96 536.721 47.05 538.171 47.05C539.231 47.05 539.771 47.56 539.771 48.58C539.771 53.48 539.611 60.84 539.291 70.66C538.971 80.48 538.811 87.84 538.811 92.74C538.811 97.64 538.991 104.46 539.351 113.83C539.711 123.2 539.891 130.21 539.891 134.85L539.881 134.84Z" fill="white"/>
<path d="M300.84 163.26C300.84 163.73 300.6 164.77 300.1 166.39C299.61 168.01 299.27 168.82 299.08 168.82C298.12 168.39 297.16 167.97 296.19 167.54C295.22 167.11 294.16 166.9 293.01 166.9C290.39 166.9 288.21 167.87 286.46 169.81C284.71 171.75 283.84 174.04 283.84 176.68C283.84 179.32 284.71 181.53 286.46 183.42C288.25 185.38 290.43 186.36 293.01 186.36C294.44 186.36 295.84 186.01 297.23 185.31C298.61 184.61 299.22 184.26 299.05 184.26C299.33 184.26 299.64 185.15 299.98 186.94C300.3 188.56 300.46 189.68 300.46 190.3C300.46 190.96 299.21 191.61 296.72 192.25C294.63 192.78 293.09 193.05 292.09 193.05C287.7 193.05 284 191.41 280.97 188.13C278.01 184.94 276.53 181.12 276.53 176.69C276.53 172.26 277.98 168.34 280.87 165.19C283.85 161.95 287.57 160.33 292.02 160.33C295 160.33 297.73 161.09 300.2 162.6C300.63 162.86 300.84 163.08 300.84 163.27V163.26Z" fill="white"/>
<path d="M333.781 176.68C333.781 181.13 332.321 184.93 329.401 188.09C326.421 191.35 322.721 192.98 318.311 192.98C313.901 192.98 310.171 191.36 307.191 188.12C304.271 184.99 302.811 181.2 302.811 176.75C302.811 172.3 304.271 168.51 307.191 165.38C310.191 162.19 313.901 160.59 318.311 160.59C322.721 160.59 326.381 162.19 329.371 165.38C332.311 168.49 333.781 172.26 333.781 176.69V176.68ZM327.041 176.74C327.041 174.14 326.241 171.93 324.641 170.09C322.981 168.15 320.871 167.18 318.311 167.18C315.751 167.18 313.631 168.14 311.951 170.06C310.351 171.91 309.551 174.14 309.551 176.74C309.551 179.34 310.361 181.51 311.981 183.39C313.681 185.37 315.791 186.36 318.311 186.36C320.831 186.36 322.951 185.37 324.641 183.39C326.241 181.52 327.041 179.3 327.041 176.74Z" fill="white"/>
<path d="M367.87 163.26C367.87 164.81 367.81 167.16 367.68 170.3C367.55 173.44 367.49 175.8 367.49 177.38C367.49 178.96 367.54 181.26 367.63 184.36C367.73 187.46 367.77 189.79 367.77 191.34C367.77 191.77 367.57 192.04 367.16 192.17C366.99 192.21 364.83 192.23 360.67 192.23C360.41 192.23 360.26 191.43 360.21 189.83C360.16 188.23 360.03 187.43 359.84 187.43C359.73 187.43 359.57 187.53 359.36 187.72C355.8 190.81 352.29 192.35 348.82 192.35C344.11 192.35 341 190.65 339.49 187.24C338.55 185.13 338.08 181.34 338.08 175.87C338.08 170.93 338.47 166.74 339.26 163.31C339.45 162.48 339.8 162.06 340.31 162.06C340.93 162.06 341.85 162.07 343.09 162.09C344.33 162.11 345.25 162.12 345.87 162.12C346.3 162.12 346.51 162.35 346.51 162.82C346.51 163.65 346.37 165.04 346.09 166.97C345.79 169.04 345.63 170.5 345.61 171.35C345.55 172.63 345.51 174.03 345.51 175.57C345.51 179.3 345.78 181.8 346.31 183.08C347.23 185.38 349.26 186.53 352.41 186.53C353.75 186.53 355.34 185.87 357.17 184.55C359.11 183.17 360.11 181.83 360.17 180.56C360.28 178.96 360.33 173.34 360.33 163.69C360.33 162.65 360.77 162.12 361.64 162.12H366.91C367.53 162.12 367.84 162.49 367.84 163.24L367.87 163.26Z" fill="white"/>
<path d="M392.66 162.23C392.66 164.57 392.5 166.7 392.18 168.62C392.12 169.11 391.9 169.36 391.54 169.36C391.09 169.36 390.42 169.31 389.51 169.22C388.61 169.12 387.92 169.08 387.45 169.08C384.77 169.08 383.05 169.84 382.31 171.35C381.86 172.27 381.64 174.17 381.64 177.07V180.58C381.64 181.77 381.69 183.58 381.78 186.01C381.87 188.44 381.92 190.25 381.92 191.44C381.92 192.01 381.68 192.3 381.18 192.3C380.52 192.3 379.52 192.29 378.18 192.27C376.84 192.25 375.84 192.24 375.18 192.24C374.69 192.24 374.44 191.97 374.44 191.44C374.44 189.71 374.47 187.12 374.52 183.64C374.57 180.17 374.6 177.56 374.6 175.81C374.6 170.55 374.11 166.32 373.13 163.13C373.09 162.96 373.07 162.83 373.07 162.75C373.07 162.49 373.21 162.31 373.49 162.21C374.28 162.12 375.39 162 376.81 161.83C379.11 161.4 380.17 161.19 380 161.19C380.34 161.19 380.56 161.82 380.67 163.08C380.78 164.34 380.97 164.96 381.24 164.96C381.28 164.96 381.34 164.94 381.4 164.9C382.27 164.35 383.15 163.79 384.02 163.24C384.98 162.67 385.96 162.24 386.96 161.96C387.79 161.7 388.86 161.58 390.15 161.58C391.81 161.58 392.64 161.8 392.64 162.25L392.66 162.23Z" fill="white"/>
<path d="M414.46 162.23C414.46 164.57 414.3 166.7 413.98 168.62C413.92 169.11 413.7 169.36 413.34 169.36C412.89 169.36 412.22 169.31 411.31 169.22C410.41 169.12 409.72 169.08 409.25 169.08C406.57 169.08 404.85 169.84 404.11 171.35C403.66 172.27 403.44 174.17 403.44 177.07V180.58C403.44 181.77 403.49 183.58 403.58 186.01C403.67 188.44 403.72 190.25 403.72 191.44C403.72 192.01 403.48 192.3 402.98 192.3C402.32 192.3 401.32 192.29 399.98 192.27C398.64 192.25 397.64 192.24 396.98 192.24C396.49 192.24 396.24 191.97 396.24 191.44C396.24 189.71 396.27 187.12 396.32 183.64C396.37 180.17 396.4 177.56 396.4 175.81C396.4 170.55 395.91 166.32 394.93 163.13C394.89 162.96 394.87 162.83 394.87 162.75C394.87 162.49 395.01 162.31 395.29 162.21C396.08 162.12 397.19 162 398.61 161.83C400.91 161.4 401.97 161.19 401.8 161.19C402.14 161.19 402.36 161.82 402.47 163.08C402.58 164.34 402.77 164.96 403.04 164.96C403.08 164.96 403.14 164.94 403.2 164.9C404.07 164.35 404.95 163.79 405.82 163.24C406.78 162.67 407.76 162.24 408.76 161.96C409.59 161.7 410.66 161.58 411.95 161.58C413.61 161.58 414.44 161.8 414.44 162.25L414.46 162.23Z" fill="white"/>
<path d="M426.28 154.02C426.28 156.64 424.82 157.95 421.9 157.95C418.98 157.95 417.46 156.64 417.46 154.02C417.46 152.85 417.92 151.88 418.83 151.11C419.68 150.39 420.7 150.02 421.9 150.02C423.1 150.02 424.12 150.39 424.98 151.14C425.84 151.89 426.27 152.84 426.27 154.02H426.28ZM426.05 162.68C426.05 164.32 425.95 166.8 425.75 170.11C425.55 173.42 425.45 175.91 425.45 177.57C425.45 179.12 425.48 181.45 425.55 184.55C425.61 187.65 425.65 189.97 425.65 191.5C425.65 191.95 425.46 192.17 425.07 192.17H418.84C418.39 192.17 418.17 191.73 418.17 190.86C418.17 189.39 418.21 187.18 418.28 184.23C418.35 181.28 418.39 179.06 418.39 177.57C418.39 175.91 418.27 173.42 418.02 170.09C417.78 166.77 417.65 164.28 417.65 162.61C417.65 162.25 417.87 162.07 418.32 162.07C418.7 162.07 419.29 162.12 420.09 162.23C420.89 162.34 421.49 162.39 421.89 162.39C422.29 162.39 422.9 162.34 423.7 162.23C424.5 162.12 425.1 162.07 425.5 162.07C425.86 162.07 426.04 162.27 426.04 162.68H426.05Z" fill="white"/>
<path d="M459.44 175.08C459.44 176.66 458.76 177.71 457.39 178.24C456.47 178.58 449.88 179.21 437.61 180.12C437.89 181.99 438.92 183.59 440.71 184.91C442.41 186.17 444.25 186.79 446.21 186.79C449.58 186.79 452.66 185.7 455.48 183.53C455.82 183.25 456.16 182.98 456.5 182.7C456.67 182.7 456.78 182.72 456.84 182.76C456.89 182.8 457.29 183.54 458.04 184.98C458.78 186.42 459.16 187.19 459.16 187.3C459.16 187.43 458.99 187.67 458.65 188.04C455.52 191.36 451.5 193.02 446.6 193.02C441.7 193.02 437.72 191.55 434.78 188.59C431.84 185.64 430.37 181.7 430.37 176.78C430.37 172.39 431.78 168.57 434.59 165.31C437.55 161.92 441.18 160.23 445.48 160.23C449.49 160.23 452.83 161.7 455.51 164.64C458.13 167.49 459.44 170.97 459.44 175.06V175.08ZM451.84 173.13C451.84 171.36 451.14 169.8 449.75 168.43C448.36 167.07 446.78 166.38 445.04 166.38C443.08 166.38 441.34 167.17 439.82 168.74C438.3 170.32 437.54 172.08 437.54 174.04C437.54 174.49 437.92 174.71 438.69 174.71C441.84 174.71 445.61 174.39 450 173.75C451.24 173.58 451.85 173.37 451.85 173.11L451.84 173.13Z" fill="white"/>
<path d="M482.19 162.23C482.19 164.57 482.03 166.7 481.71 168.62C481.65 169.11 481.43 169.36 481.07 169.36C480.62 169.36 479.95 169.31 479.04 169.22C478.13 169.12 477.45 169.08 476.98 169.08C474.3 169.08 472.58 169.84 471.84 171.35C471.39 172.27 471.17 174.17 471.17 177.07V180.58C471.17 181.77 471.22 183.58 471.31 186.01C471.41 188.44 471.45 190.25 471.45 191.44C471.45 192.01 471.21 192.3 470.72 192.3C470.06 192.3 469.06 192.29 467.72 192.27C466.38 192.25 465.38 192.24 464.72 192.24C464.23 192.24 463.99 191.97 463.99 191.44C463.99 189.71 464.02 187.12 464.07 183.64C464.12 180.16 464.15 177.56 464.15 175.81C464.15 170.55 463.66 166.32 462.68 163.13C462.64 162.96 462.62 162.83 462.62 162.75C462.62 162.49 462.76 162.31 463.04 162.21C463.83 162.12 464.94 162 466.36 161.83C468.66 161.4 469.73 161.19 469.55 161.19C469.89 161.19 470.11 161.82 470.22 163.08C470.33 164.34 470.52 164.96 470.79 164.96C470.83 164.96 470.89 164.94 470.95 164.9C471.82 164.35 472.7 163.79 473.57 163.24C474.53 162.67 475.51 162.24 476.51 161.96C477.34 161.7 478.41 161.58 479.7 161.58C481.36 161.58 482.19 161.8 482.19 162.25V162.23Z" fill="white"/>
</g>
<defs>
<clipPath id="clip0_50_1438">
<rect width="580" height="230" fill="white"/>
</clipPath>
</defs>
</svg>
